<svg viewBox="0 0 17 22" xmlns="http://www.w3.org/2000/svg">
<mask id="mask0_0:2320" style="mask-type:alpha" maskUnits="userSpaceOnUse" x="0" y="0" width="17" height="22">
<path fill-rule="evenodd" clip-rule="evenodd" d="M14.1374 7.665H13.1845V5.75928C13.1845 3.1294 11.0501 0.994995 8.42022 0.994995C5.79033 0.994995 3.65593 3.1294 3.65593 5.75928H5.56165C5.56165 4.17754 6.83848 2.90071 8.42022 2.90071C10.002 2.90071 11.2788 4.17754 11.2788 5.75928V7.665H2.70308C1.65493 7.665 0.797363 8.52257 0.797363 9.57071V19.0993C0.797363 20.1474 1.65493 21.005 2.70308 21.005H14.1374C15.1855 21.005 16.0431 20.1474 16.0431 19.0993V9.57071C16.0431 8.52257 15.1855 7.665 14.1374 7.665ZM2.70308 19.0993V9.57071H14.1374V19.0993H2.70308ZM10.3259 14.335C10.3259 15.3831 9.46836 16.2407 8.42022 16.2407C7.37208 16.2407 6.51451 15.3831 6.51451 14.335C6.51451 13.2869 7.37208 12.4293 8.42022 12.4293C9.46836 12.4293 10.3259 13.2869 10.3259 14.335Z" fill="white"/>
</mask>
<g mask="url(#mask0_0:2320)">
<rect x="-4" y="-1" width="24" height="24" fill="#66788A"/>
</g>
</svg>
