<svg viewBox="0 0 18 18" fill="none" xmlns="http://www.w3.org/2000/svg">
<path fill-rule="evenodd" clip-rule="evenodd" d="M2 0H16C17.11 0 18 0.9 18 2V16C18 17.1 17.11 18 16 18H2C0.89 18 0 17.1 0 16V2C0 0.9 0.89 0 2 0ZM2 9.20154L7 14L16 5.36276L14.59 4L7 11.2841L3.41 7.84837L2 9.20154Z" fill="#1665D8"/>
<mask id="mask0_0:2070" style="mask-type:alpha" maskUnits="userSpaceOnUse" x="0" y="0" width="18" height="18">
<path fill-rule="evenodd" clip-rule="evenodd" d="M2 0H16C17.11 0 18 0.9 18 2V16C18 17.1 17.11 18 16 18H2C0.89 18 0 17.1 0 16V2C0 0.9 0.89 0 2 0ZM2 9.20154L7 14L16 5.36276L14.59 4L7 11.2841L3.41 7.84837L2 9.20154Z" fill="white"/>
</mask>
<g mask="url(#mask0_0:2070)">
</g>
</svg>
